<?xml version="1.0" encoding="UTF-8" standalone="no"?>
<!-- Created with Inkscape (http://www.inkscape.org/) -->

<svg
   width="210mm"
   height="210mm"
   viewBox="0 0 210 210"
   version="1.1"
   id="svg1"
   xml:space="preserve"
   inkscape:version="1.4.2 (ebf0e940d0, 2025-05-08)"
   sodipodi:docname="AIFirstIcon.svg"
   xmlns:inkscape="http://www.inkscape.org/namespaces/inkscape"
   xmlns:sodipodi="http://sodipodi.sourceforge.net/DTD/sodipodi-0.dtd"
   xmlns="http://www.w3.org/2000/svg"
   xmlns:svg="http://www.w3.org/2000/svg"><sodipodi:namedview
     id="namedview1"
     pagecolor="#ffffff"
     bordercolor="#000000"
     borderopacity="0.25"
     inkscape:showpageshadow="2"
     inkscape:pageopacity="0.0"
     inkscape:pagecheckerboard="0"
     inkscape:deskcolor="#d1d1d1"
     inkscape:document-units="mm"
     showgrid="false"
     inkscape:zoom="0.42056807"
     inkscape:cx="386.38216"
     inkscape:cy="456.52538"
     inkscape:window-width="1280"
     inkscape:window-height="742"
     inkscape:window-x="0"
     inkscape:window-y="0"
     inkscape:window-maximized="1"
     inkscape:current-layer="layer1" /><defs
     id="defs1" /><g
     inkscape:label="Layer 1"
     inkscape:groupmode="layer"
     id="layer1"><path
       style="fill:#000000;stroke-width:1.17044"
       d="m 107.66727,191.59734 c 0.0256,3.82813 -14.397656,-0.41413 -15.446885,-2.44312 -0.438459,-0.84787 -0.538883,-0.87445 -5.809312,-1.53778 -2.949729,-0.37124 -10.310265,-1.30443 -16.356746,-2.07375 -6.046482,-0.76932 -23.117536,-2.9332 -37.935674,-4.80865 C 17.300513,178.85861 4.7224632,177.24232 4.1674299,177.14228 2.9700919,176.92646 1.234672,176.03126 1.3182414,175.05067 4.8259383,133.89135 5.8728702,71.227867 6.5017664,37.704468 6.5133538,37.083798 7.081956,36.38533 7.5670906,36.025283 L 8.4092059,35.4003 14.64928,37.016686 c 3.43204,0.889012 6.295068,1.561393 6.362284,1.494177 0.06722,-0.06722 0.266584,-2.826067 0.443041,-6.130781 0.598209,-11.203347 0.73761,-12.484978 1.46982,-13.513272 1.346348,-1.890771 2.130703,-2.034966 10.095467,-1.855932 7.623174,0.171356 11.862446,0.634819 19.073054,2.085184 11.801302,2.373751 22.50751,6.145021 30.47884,10.736196 6.033509,3.475066 12.716788,8.317594 17.983124,13.030077 l 3.09398,2.768602 3.33873,3.681207 c -0.18859,0.169098 0.12476,59.447866 0.67965,142.285196 z m -8.500495,-57.9995 0.0023,-79.355219 -2.712323,-2.592926 C 91.072873,46.502494 82.827002,40.445357 76.712424,37.145955 65.892144,31.307373 50.557263,27.201792 36.000833,26.24631 33.5373,26.084604 31.428858,26.009668 31.315408,26.079783 c -0.297124,0.183634 -0.420447,2.157117 -1.990664,31.855623 -0.877273,16.592418 -1.992449,73.758024 -2.328859,79.610844 -0.701847,12.21064 -0.77247,14.4751 -0.454325,14.56724 0.171903,0.0497 2.820949,0.17207 5.886771,0.27173 15.40723,0.50088 32.08813,4.11138 43.876723,9.49694 6.071757,2.77384 13.397447,7.3716 19.468132,12.21859 1.5914,1.27062 3.005401,2.31021 3.142226,2.31021 0.136812,0 0.249924,-19.2659 0.251363,-42.81312 z m 8.972845,-79.355219 0.002,79.355219 c 10e-4,23.54722 0.11458,42.81312 0.25137,42.81312 0.13681,0 -0.25371,-122.168339 -0.25371,-122.168339 z M 17.563741,170.9963 c 11.275735,-2.01442 19.45434,-2.77123 29.884021,-2.76532 11.048211,0.006 17.181894,0.83232 26.292539,3.54096 1.629428,0.48443 3.021888,0.82149 3.094356,0.74903 0.283592,-0.2836 -7.157114,-3.56109 -11.115836,-4.89631 -12.050007,-4.06435 -24.862479,-6.07777 -38.68219,-6.07877 -7.510955,-5.5e-4 -8.211819,-0.15911 -9.579222,-2.16728 -0.718843,-1.05568 -0.733135,-1.20066 -0.549571,-5.57422 0.103654,-2.46969 0.344065,-7.13809 0.53424,-10.37424 0.865039,-14.72001 3.576364,-102.515543 3.495384,-102.616923 -0.04973,-0.06226 -1.416579,0.136581 -3.037443,0.441865 l -2.947026,0.55506 -0.161498,1.261369 c -0.08882,0.693753 -0.370026,5.093647 -0.624889,9.777541 -0.596527,10.962972 -1.721555,67.373928 -3.384231,96.310148 -0.729116,12.6891 -1.2810618,23.15793 -1.2265462,23.26408 0.054519,0.10615 0.9031082,0.002 1.8857622,-0.22973 0.982654,-0.23249 3.737621,-0.77127 6.12215,-1.19726 z"
       id="path1"
       sodipodi:nodetypes="ssssssssscssssssssccscccssssscsssscccscscssssssssscsssscs" /><path
       style="fill:#000000;stroke-width:1.17044"
       d="m 102.33272,191.61707 c -0.0256,3.82812 14.39766,-0.41414 15.44689,-2.44312 0.43846,-0.84788 0.53888,-0.87446 5.80931,-1.53779 2.94972,-0.37124 10.31026,-1.30443 16.35674,-2.07375 6.04648,-0.76932 23.11754,-2.9332 37.93568,-4.80865 14.81814,-1.87543 27.39619,-3.49172 27.95122,-3.59176 1.19734,-0.21582 2.93276,-1.11102 2.84919,-2.09161 -3.50769,-41.15932 -4.55463,-103.822789 -5.18353,-137.346193 -0.0117,-0.620671 -0.58018,-1.319134 -1.06532,-1.679185 l -0.84211,-0.624984 -6.24008,1.616387 c -3.43204,0.889009 -6.29506,1.561393 -6.36228,1.494177 -0.0672,-0.06722 -0.26658,-2.826067 -0.44304,-6.130781 -0.59821,-11.203348 -0.73761,-12.484978 -1.46982,-13.513272 -1.34635,-1.890771 -2.13071,-2.034966 -10.09547,-1.855932 -7.62317,0.171356 -11.86245,0.634819 -19.07305,2.085184 -11.8013,2.373751 -22.50752,6.145021 -30.47885,10.736196 -6.0335,3.475066 -12.71679,8.317595 -17.98311,13.030076 l -3.09399,2.768603 -2.99573,2.880874 c 0.18859,0.169098 -0.46775,60.24819 -1.02265,143.08553 z m 8.5005,-57.99951 -0.002,-79.355211 2.71232,-2.592925 c 5.38392,-5.147201 13.62979,-11.204338 19.74437,-14.50374 10.82028,-5.838582 26.15516,-9.944163 40.71159,-10.899645 2.46353,-0.161706 4.57198,-0.236642 4.68543,-0.166527 0.29711,0.183634 0.42044,2.157117 1.99066,31.855622 0.87727,16.592418 1.99245,73.758016 2.32886,79.610836 0.70184,12.21064 0.77246,14.47511 0.45432,14.56724 -0.17191,0.0498 -2.82095,0.17207 -5.88677,0.27173 -15.40723,0.50088 -32.08813,4.11138 -43.87672,9.49694 -6.07176,2.77384 -13.39745,7.3716 -19.46813,12.21859 -1.5914,1.27062 -3.0054,2.31022 -3.14223,2.31022 -0.13681,0 -0.24992,-19.26591 -0.25136,-42.81313 z m -8.97284,-79.355211 -0.002,79.355211 c -10e-4,23.54722 -0.11459,42.81313 -0.25138,42.81313 -0.13681,0 0.25372,-122.168341 0.25372,-122.168341 z m 90.57587,116.753671 c -11.27574,-2.01442 -19.45434,-2.77123 -29.88402,-2.76532 -11.04821,0.006 -17.18189,0.83232 -26.29254,3.54096 -1.62943,0.48443 -3.02189,0.82149 -3.09435,0.74903 -0.2836,-0.2836 7.15711,-3.56109 11.11583,-4.89631 12.05001,-4.06434 24.86248,-6.07777 38.68219,-6.07876 7.51095,-5.6e-4 8.21182,-0.15911 9.57923,-2.16729 0.71883,-1.05567 0.73313,-1.20066 0.54957,-5.57422 -0.10371,-2.46968 -0.34407,-7.13809 -0.53424,-10.37424 -0.86505,-14.72001 -3.57637,-102.515534 -3.49539,-102.616914 0.0497,-0.06226 1.41658,0.136582 3.03744,0.441865 l 2.94703,0.55506 0.1615,1.261369 c 0.0888,0.693761 0.37002,5.093647 0.62488,9.777541 0.59653,10.962971 1.72156,67.373919 3.38424,96.310139 0.72911,12.6891 1.28106,23.15793 1.22654,23.26408 -0.0545,0.10616 -0.9031,0.002 -1.88576,-0.22972 -0.98265,-0.2325 -3.73762,-0.77128 -6.12215,-1.19727 z"
       id="path1-2"
       sodipodi:nodetypes="ssssssssscssssssssccscccssssscsssscccscscssssssssscsssscs" /><path
       d="M 79.146938,124.20655 73.582391,108.80324 H 50.880653 l -5.524224,15.40331 h -7.90327 l 20.56463,-54.395461 h 8.750048 L 86.969561,124.20655 Z M 62.292006,75.617573 61.808132,77.190162 59.025859,85.738597 52.937116,102.79514 H 71.606573 L 64.630729,82.633741 Z"
       id="text12"
       style="font-size:82.5811px;font-family:'Liberation Mono';-inkscape-font-specification:'Liberation Mono';stroke-width:0.309679"
       aria-label="A" /><path
       d="m 130.58474,69.811089 h 33.18566 v 6.290358 h -12.742 v 41.814743 h 12.742 v 6.29036 h -33.18566 v -6.29036 h 12.742 V 76.101447 h -12.742 z"
       id="text13"
       style="font-size:82.5811px;font-family:'Liberation Mono';-inkscape-font-specification:'Liberation Mono';stroke-width:0.309679"
       aria-label="I" /></g></svg>
