<?xml version="1.0" standalone="no"?>
<!DOCTYPE svg PUBLIC "-//W3C//DTD SVG 20010904//EN"
 "http://www.w3.org/TR/2001/REC-SVG-20010904/DTD/svg10.dtd">
<svg version="1.0" xmlns="http://www.w3.org/2000/svg"
 width="1260.000000pt" height="1280.000000pt" viewBox="0 0 1260.000000 1280.000000"
 preserveAspectRatio="xMidYMid meet">
<metadata>
Created by potrace 1.15, written by Peter Selinger 2001-2017
</metadata>
<g transform="translate(0.000000,1280.000000) scale(0.100000,-0.100000)"
fill="#000000" stroke="none">
<path d="M5934 12200 c-306 -443 -412 -589 -424 -584 -126 50 -1244 473 -1246
471 -2 -1 164 -314 368 -695 l371 -692 1346 0 1347 0 371 692 c204 381 370
694 369 696 -2 2 -1129 -425 -1247 -472 -11 -5 -113 135 -424 584 -225 324
-412 590 -415 590 -4 0 -191 -266 -416 -590z"/>
<path d="M5640 10219 c-549 -64 -1015 -386 -1236 -853 -108 -228 -129 -351
-166 -941 -17 -280 -17 -1358 0 -1630 29 -452 62 -804 107 -1158 27 -201 92
-628 98 -634 2 -2 405 -32 896 -67 491 -35 894 -66 896 -68 4 -3 -217 -20
-1474 -109 -145 -10 -265 -20 -268 -22 -6 -7 90 -449 157 -722 332 -1352 859
-2633 1558 -3787 72 -117 135 -213 141 -213 12 0 138 202 296 475 375 651 704
1362 969 2095 103 284 130 365 123 372 -3 3 -331 29 -729 57 -398 29 -712 55
-698 59 14 3 167 15 340 27 338 23 428 29 857 60 153 11 285 20 294 20 9 0 19
8 22 18 79 268 169 590 207 744 302 1200 451 2420 449 3673 0 318 -12 731 -21
741 -3 2 -416 33 -918 69 -503 36 -916 67 -918 70 -3 3 12 5 34 5 72 1 1783
125 1787 130 7 7 -19 302 -33 380 -93 536 -525 999 -1077 1155 -206 58 -202
58 -938 61 -374 1 -714 -2 -755 -7z"/>
<path d="M4 9083 c20 -180 127 -338 286 -422 121 -65 5 -61 1876 -61 l1702 0
6 88 c9 128 33 298 54 380 l18 72 -1974 0 -1975 0 7 -57z"/>
<path d="M8660 9115 c24 -64 69 -382 70 -497 0 -17 88 -18 1703 -18 1872 0
1756 -4 1877 61 156 83 266 243 286 418 l7 61 -1976 0 -1977 0 10 -25z"/>
<path d="M1154 8248 c-8 -13 16 -138 37 -191 30 -77 74 -140 138 -199 72 -67
139 -103 237 -128 75 -19 114 -20 1170 -20 l1092 0 6 93 c3 50 8 172 10 269
l6 178 -1346 2 c-740 2 -1348 0 -1350 -4z"/>
<path d="M10093 8252 l-1343 -2 6 -178 c2 -97 7 -219 10 -269 l6 -93 1092 0
c1056 0 1095 1 1170 20 217 55 371 224 406 446 6 37 7 70 3 73 -4 3 -612 5
-1350 3z"/>
<path d="M1880 7332 c0 -58 27 -148 66 -223 44 -83 144 -181 226 -222 115 -58
98 -57 916 -57 l752 0 0 83 c0 45 -3 166 -7 270 l-6 187 -974 0 -973 0 0 -38z"/>
<path d="M8767 7188 c-4 -99 -7 -221 -7 -270 l0 -88 753 0 c817 0 800 -1 915
57 82 41 182 139 226 222 39 75 66 165 66 223 l0 38 -973 0 -974 0 -6 -182z"/>
</g>
</svg>
